HIERARCHY
ROOT Root
{
  OFFSET 0.0 0.0 0.0
  CHANNELS 6 Xposition Yposition Zposition Zrotation Yrotation Xrotation
  JOINT Hips
  {
    OFFSET 0.0 100.0 0.0
    CHANNELS 6 Xposition Yposition Zposition Zrotation Yrotation Xrotation
    JOINT Spine1
    {
      OFFSET 5.003913 -0.037094 -0.013727
      CHANNELS 3 Zrotation Yrotation Xrotation
      JOINT Spine2
      {
        OFFSET 7.125363 -1e-06 0.0
        CHANNELS 3 Zrotation Yrotation Xrotation
        JOINT Chest
        {
          OFFSET 7.594027 1e-06 0.0
          CHANNELS 3 Zrotation Yrotation Xrotation
          JOINT Neck1
          {
            OFFSET 26.313086 -0.460272 -0.181672
            CHANNELS 3 Zrotation Yrotation Xrotation
            JOINT Neck2
            {
              OFFSET 8.045911 0.0 0.0
              CHANNELS 3 Zrotation Yrotation Xrotation
              JOINT Head
              {
                OFFSET 6.432774 0.0 0.0
                CHANNELS 3 Zrotation Yrotation Xrotation
                JOINT HeadEnd
                {
                  OFFSET 16.169773 0.06451 0.00362
                  CHANNELS 3 Zrotation Yrotation Xrotation
                }
                JOINT Jaw
                {
                  OFFSET 0.108741 3.12938 0.002639
                  CHANNELS 3 Zrotation Yrotation Xrotation
                }
                JOINT LeftEye
                {
                  OFFSET 4.45173 8.166359 3.206392
                  CHANNELS 3 Zrotation Yrotation Xrotation
                }
                JOINT RightEye
                {
                  OFFSET 4.436895 8.135758 -3.222429
                  CHANNELS 3 Zrotation Yrotation Xrotation
                }
              }
            }
          }
          JOINT LeftShoulder
          {
            OFFSET 23.218927 5.195579 1.621656
            CHANNELS 3 Zrotation Yrotation Xrotation
            JOINT LeftArm
            {
              OFFSET 15.902118 2e-06 -2e-06
              CHANNELS 3 Zrotation Yrotation Xrotation
              JOINT LeftForeArm
              {
                OFFSET 28.739307 0.0 -1e-06
                CHANNELS 3 Zrotation Yrotation Xrotation
                JOINT LeftHand
                {
                  OFFSET 27.093981 -4e-06 0.0
                  CHANNELS 3 Zrotation Yrotation Xrotation
                  JOINT LeftHandThumb1
                  {
                    OFFSET 2.276781 3.380274 0.83384
                    CHANNELS 3 Zrotation Yrotation Xrotation
                    JOINT LeftHandThumb2
                    {
                      OFFSET 4.705309 -1e-06 -1e-06
                      CHANNELS 3 Zrotation Yrotation Xrotation
                      JOINT LeftHandThumb3
                      {
                        OFFSET 2.798515 0.0 3e-06
                        CHANNELS 3 Zrotation Yrotation Xrotation
                        JOINT LeftHandThumbEnd
                        {
                          OFFSET 3.180793 4e-06 -4e-06
                          CHANNELS 3 Zrotation Yrotation Xrotation
                        }
                      }
                    }
                  }
                  JOINT LeftHandIndex1
                  {
                    OFFSET 3.247786 2.352677 0.137192
                    CHANNELS 3 Zrotation Yrotation Xrotation
                    JOINT LeftHandIndex2
                    {
                      OFFSET 6.367095 1e-06 0.0
                      CHANNELS 3 Zrotation Yrotation Xrotation
                      JOINT LeftHandIndex3
                      {
                        OFFSET 3.662364 0.0 0.0
                        CHANNELS 3 Zrotation Yrotation Xrotation
                        JOINT LeftHandIndex4
                        {
                          OFFSET 2.329242 4e-06 -4e-06
                          CHANNELS 3 Zrotation Yrotation Xrotation
                          JOINT LeftHandIndexEnd
                          {
                            OFFSET 2.767823 1e-06 0.0
                            CHANNELS 3 Zrotation Yrotation Xrotation
                          }
                        }
                      }
                    }
                  }
                  JOINT LeftHandMiddle1
                  {
                    OFFSET 3.163612 0.945023 -0.406112
                    CHANNELS 3 Zrotation Yrotation Xrotation
                    JOINT LeftHandMiddle2
                    {
                      OFFSET 6.276789 3e-06 0.0
                      CHANNELS 3 Zrotation Yrotation Xrotation
                      JOINT LeftHandMiddle3
                      {
                        OFFSET 4.35652 -1e-06 4e-06
                        CHANNELS 3 Zrotation Yrotation Xrotation
                        JOINT LeftHandMiddle4
                        {
                          OFFSET 2.996877 0.0 8e-06
                          CHANNELS 3 Zrotation Yrotation Xrotation
                          JOINT LeftHandMiddleEnd
                          {
                            OFFSET 2.323256 3e-06 -4e-06
                            CHANNELS 3 Zrotation Yrotation Xrotation
                          }
                        }
                      }
                    }
                  }
                  JOINT LeftHandRing1
                  {
                    OFFSET 2.882606 -0.309162 0.107445
                    CHANNELS 3 Zrotation Yrotation Xrotation
                    JOINT LeftHandRing2
                    {
                      OFFSET 6.033198 0.0 4e-06
                      CHANNELS 3 Zrotation Yrotation Xrotation
                      JOINT LeftHandRing3
                      {
                        OFFSET 4.350578 3e-06 0.0
                        CHANNELS 3 Zrotation Yrotation Xrotation
                        JOINT LeftHandRing4
                        {
                          OFFSET 2.651321 2e-06 -7e-06
                          CHANNELS 3 Zrotation Yrotation Xrotation
                          JOINT LeftHandRingEnd
                          {
                            OFFSET 1.937663 1e-06 -4e-06
                            CHANNELS 3 Zrotation Yrotation Xrotation
                          }
                        }
                      }
                    }
                  }
                  JOINT LeftHandPinky1
                  {
                    OFFSET 2.865315 -1.525436 0.575687
                    CHANNELS 3 Zrotation Yrotation Xrotation
                    JOINT LeftHandPinky2
                    {
                      OFFSET 5.54936 1e-06 -8e-06
                      CHANNELS 3 Zrotation Yrotation Xrotation
                      JOINT LeftHandPinky3
                      {
                        OFFSET 3.070974 0.0 -4e-06
                        CHANNELS 3 Zrotation Yrotation Xrotation
                        JOINT LeftHandPinky4
                        {
                          OFFSET 1.549672 1e-06 0.0
                          CHANNELS 3 Zrotation Yrotation Xrotation
                          JOINT LeftHandPinkyEnd
                          {
                            OFFSET 1.952123 0.0 0.0
                            CHANNELS 3 Zrotation Yrotation Xrotation
                          }
                        }
                      }
                    }
                  }
                }
              }
            }
          }
          JOINT RightShoulder
          {
            OFFSET 23.161716 5.296122 -1.380114
            CHANNELS 3 Zrotation Yrotation Xrotation
            JOINT RightArm
            {
              OFFSET -16.027195 -2e-06 1.1e-05
              CHANNELS 3 Zrotation Yrotation Xrotation
              JOINT RightForeArm
              {
                OFFSET -28.736639 4e-06 2e-06
                CHANNELS 3 Zrotation Yrotation Xrotation
                JOINT RightHand
                {
                  OFFSET -27.133619 6e-06 0.0
                  CHANNELS 3 Zrotation Yrotation Xrotation
                  JOINT RightHandThumb1
                  {
                    OFFSET -2.274328 -3.351035 -0.83067
                    CHANNELS 3 Zrotation Yrotation Xrotation
                    JOINT RightHandThumb2
                    {
                      OFFSET -4.703594 -3e-06 2e-06
                      CHANNELS 3 Zrotation Yrotation Xrotation
                      JOINT RightHandThumb3
                      {
                        OFFSET -2.794935 -4e-06 -3e-06
                        CHANNELS 3 Zrotation Yrotation Xrotation
                        JOINT RightHandThumbEnd
                        {
                          OFFSET -3.183852 4e-06 1e-06
                          CHANNELS 3 Zrotation Yrotation Xrotation
                        }
                      }
                    }
                  }
                  JOINT RightHandIndex1
                  {
                    OFFSET -3.253496 -2.33755 -0.127667
                    CHANNELS 3 Zrotation Yrotation Xrotation
                    JOINT RightHandIndex2
                    {
                      OFFSET -6.344434 0.0 0.0
                      CHANNELS 3 Zrotation Yrotation Xrotation
                      JOINT RightHandIndex3
                      {
                        OFFSET -3.654871 0.0 -8e-06
                        CHANNELS 3 Zrotation Yrotation Xrotation
                        JOINT RightHandIndex4
                        {
                          OFFSET -2.327586 -1e-06 0.0
                          CHANNELS 3 Zrotation Yrotation Xrotation
                          JOINT RightHandIndexEnd
                          {
                            OFFSET -2.770001 3e-06 8e-06
                            CHANNELS 3 Zrotation Yrotation Xrotation
                          }
                        }
                      }
                    }
                  }
                  JOINT RightHandMiddle1
                  {
                    OFFSET -3.168223 -0.944764 0.411762
                    CHANNELS 3 Zrotation Yrotation Xrotation
                    JOINT RightHandMiddle2
                    {
                      OFFSET -6.266691 -1e-06 -4e-06
                      CHANNELS 3 Zrotation Yrotation Xrotation
                      JOINT RightHandMiddle3
                      {
                        OFFSET -4.348901 0.0 0.0
                        CHANNELS 3 Zrotation Yrotation Xrotation
                        JOINT RightHandMiddle4
                        {
                          OFFSET -3.00024 2e-06 -4e-06
                          CHANNELS 3 Zrotation Yrotation Xrotation
                          JOINT RightHandMiddleEnd
                          {
                            OFFSET -2.321477 -4e-06 -4e-06
                            CHANNELS 3 Zrotation Yrotation Xrotation
                          }
                        }
                      }
                    }
                  }
                  JOINT RightHandRing1
                  {
                    OFFSET -2.885654 0.293261 -0.119232
                    CHANNELS 3 Zrotation Yrotation Xrotation
                    JOINT RightHandRing2
                    {
                      OFFSET -6.032835 -1e-06 -4e-06
                      CHANNELS 3 Zrotation Yrotation Xrotation
                      JOINT RightHandRing3
                      {
                        OFFSET -4.33881 0.0 -4e-06
                        CHANNELS 3 Zrotation Yrotation Xrotation
                        JOINT RightHandRing4
                        {
                          OFFSET -2.654903 -4e-06 -4e-06
                          CHANNELS 3 Zrotation Yrotation Xrotation
                          JOINT RightHandRingEnd
                          {
                            OFFSET -1.935122 0.0 4e-06
                            CHANNELS 3 Zrotation Yrotation Xrotation
                          }
                        }
                      }
                    }
                  }
                  JOINT RightHandPinky1
                  {
                    OFFSET -2.866241 1.503904 -0.60527
                    CHANNELS 3 Zrotation Yrotation Xrotation
                    JOINT RightHandPinky2
                    {
                      OFFSET -5.553177 -2e-06 0.0
                      CHANNELS 3 Zrotation Yrotation Xrotation
                      JOINT RightHandPinky3
                      {
                        OFFSET -3.062664 -1e-06 -4e-06
                        CHANNELS 3 Zrotation Yrotation Xrotation
                        JOINT RightHandPinky4
                        {
                          OFFSET -1.546529 2e-06 4e-06
                          CHANNELS 3 Zrotation Yrotation Xrotation
                          JOINT RightHandPinkyEnd
                          {
                            OFFSET -1.952341 0.0 -4e-06
                            CHANNELS 3 Zrotation Yrotation Xrotation
                          }
                        }
                      }
                    }
                  }
                }
              }
            }
          }
        }
      }
    }
    JOINT LeftLeg
    {
      OFFSET -8.443107 2.567604 10.043214
      CHANNELS 3 Zrotation Yrotation Xrotation
      JOINT LeftShin
      {
        OFFSET 43.229198 1e-06 -1e-06
        CHANNELS 3 Zrotation Yrotation Xrotation
        JOINT LeftFoot
        {
          OFFSET 42.298611 1e-06 1e-06
          CHANNELS 3 Zrotation Yrotation Xrotation
          JOINT LeftToeBase
          {
            OFFSET 14.165858 1e-06 0.0
            CHANNELS 3 Zrotation Yrotation Xrotation
            JOINT LeftToeEnd
            {
              OFFSET 6.7141 -0.234461 0.0
              CHANNELS 3 Zrotation Yrotation Xrotation
            }
          }
        }
      }
    }
    JOINT RightLeg
    {
      OFFSET -8.303923 2.592729 -10.047278
      CHANNELS 3 Zrotation Yrotation Xrotation
      JOINT RightShin
      {
        OFFSET -43.369682 0.0 1e-06
        CHANNELS 3 Zrotation Yrotation Xrotation
        JOINT RightFoot
        {
          OFFSET -42.260784 4e-06 2e-06
          CHANNELS 3 Zrotation Yrotation Xrotation
          JOINT RightToeBase
          {
            OFFSET -14.222245 -2e-06 -1e-06
            CHANNELS 3 Zrotation Yrotation Xrotation
            JOINT RightToeEnd
            {
              OFFSET -6.660062 0.232574 -2e-06
              CHANNELS 3 Zrotation Yrotation Xrotation
            }
          }
        }
      }
    }
  }
}
MOTION
Frames: 4
Frame Time: 0.03333333333333333
0.0 0.0 0.0 0.0 -0.0 0.0 -0.580666 48.70002 6.624066 90.628334 -58.963768 89.59716 14.282336 -0.525113 0.060746 -4.649755 -0.649957 0.036823 16.128788 -0.695367 -2.201746 13.87762 0.0134 4.363413 -2.747603 -0.004041 2.010851 -31.124825 2.899185 0.554735 5e-06 -0.0 -0.0 -0.185263 0.00403 0.034884 -0.063358 0.036143 0.053751 -0.045092 -0.029348 0.010138 -34.904343 -70.552597 39.103504 88.554764 1.152808 -24.622458 7.976456 -0.608259 -0.059829 18.291105 76.943001 21.3253 17.636629 -26.322731 52.41119 -19.466658 -14.395598 29.410389 -1e-06 -8.774821 -2e-06 15.355306 -17.703053 6.612165 -0.609776 -1.795654 -3.889328 -4.807089 -11.046808 -2.93785 4e-06 -20.976021 -0.0 -5.019971 -25.03356 -4.03188 6e-06 0.0 1e-06 -10.634534 -5.686969 -3.565587 10.573275 -17.922953 -3.1139 3e-06 -13.82121 2e-06 -0.501777 -31.181505 -4.027016 -10.283148 -58.188984 6.315291 -13.982714 -7.150198 -2.875042 13.772731 -8.401491 -3.218241 0.347733 -34.211555 0.771657 -0.963028 -17.73337 2.621021 -0.0 -1e-06 -0.0 -17.34642 -20.095217 -4.201782 21.757557 -1.638375 3.866428 1e-06 -6.338823 1e-06 -1.697589 -22.591742 -6.194005 -0.0 -8e-06 -3e-06 154.228424 -75.054962 29.978397 96.920975 1.681127 -22.962795 4.340117 -0.647079 -0.016861 26.315239 77.836601 27.638889 22.182112 -20.375898 49.933327 -16.701813 -16.743528 28.476532 -3e-06 -12.690602 -1e-06 17.027914 -18.098236 2.31698 -0.105919 -1.513856 -4.275882 -5.039041 -5.612872 -2.953557 3e-06 -11.020523 -2e-06 -6.1113 -15.89533 -3.840471 1e-06 -0.0 -1e-06 -10.283371 -5.680288 -4.341838 11.028295 -11.302404 -2.372633 -1.384268 -14.238578 -6.320122 -0.625438 -26.924185 -3.827601 -4.416553 -49.920753 -4.258552 -13.708525 -7.363477 -3.720939 18.14115 -14.052739 -3.242676 6e-06 -18.787266 -2e-06 -0.429713 -8.456041 2.555504 1e-06 1e-06 0.0 -15.923536 -20.094482 -5.473585 30.419218 -7.190828 1.735926 1e-06 -8.162922 1e-06 -1.861901 -22.861467 -6.167942 -0.0 -4e-06 -1e-06 115.316719 -6.921334 1.440105 111.001976 0.193653 0.350645 -52.439217 9.960419 -7.39134 -7.910314 1.419271 2.688799 -0.999997 -0.0 0.0 -66.790337 0.00537 4.245282 116.360733 0.18136 -0.012449 -66.689667 1.025331 -9.088219 -9.724986 0.632925 1.852364 -1.0 -0.0 0.0 
0.0 0.0 0.0 0.0 -0.0 0.0 -0.486195 48.674099 6.806346 90.261185 -59.064198 89.873856 14.185543 -0.411417 0.141088 -4.743698 -0.595401 0.088091 16.182219 -0.664356 -2.106335 13.861051 -0.066564 4.2377 -2.748115 -0.016099 1.956688 -31.075766 3.029477 0.457596 5e-06 -0.0 -0.0 -0.192278 -0.027507 0.043244 -0.040168 -0.001854 0.068535 -0.022817 -0.052772 0.00946 -34.872654 -70.678947 39.315762 88.832146 1.277123 -25.038792 7.699059 -0.617736 -0.051268 21.189022 76.729721 23.978556 17.636637 -26.322737 52.411205 -19.466658 -14.395597 29.410393 -1e-06 -8.774822 -2e-06 15.364758 -17.753296 6.620069 -0.609778 -1.795655 -3.889328 -4.807088 -11.046809 -2.93785 4e-06 -20.976021 0.0 -5.01997 -25.03356 -4.03188 5e-06 0.0 1e-06 -10.634535 -5.686972 -3.565588 10.573275 -17.922955 -3.1139 2e-06 -13.821206 2e-06 -0.501778 -31.181505 -4.027015 -10.266295 -58.355408 6.36436 -13.982716 -7.150198 -2.875043 13.772731 -8.401493 -3.21824 0.347733 -34.211555 0.771656 -0.963029 -17.733374 2.621021 -0.0 0.0 -0.0 -17.346422 -20.095219 -4.201783 21.757559 -1.638375 3.866429 1e-06 -6.338823 1e-06 -1.69759 -22.591745 -6.194005 -0.0 -7e-06 -2e-06 154.260803 -75.108986 30.150105 96.741776 1.714385 -23.064396 4.284054 -0.572533 -0.014236 26.95591 77.36039 28.076963 22.182117 -20.375898 49.933319 -16.701811 -16.74353 28.476532 -2e-06 -12.6906 -1e-06 16.962423 -18.043503 2.362181 -0.105919 -1.513856 -4.275882 -5.039041 -5.612871 -2.953557 3e-06 -11.020526 -1e-06 -6.111298 -15.895332 -3.840472 0.0 -0.0 -0.0 -10.283371 -5.680288 -4.341839 11.028296 -11.302406 -2.372633 -1.384268 -14.238579 -6.320122 -0.625438 -26.924192 -3.827601 -4.382693 -50.013451 -4.172458 -13.708524 -7.363477 -3.72094 18.141146 -14.052739 -3.242674 7e-06 -18.787268 -1e-06 -0.429712 -8.456045 2.555504 -0.0 -1e-06 -0.0 -15.923534 -20.094482 -5.473585 30.41921 -7.190829 1.735926 2e-06 -8.162924 0.0 -1.8619 -22.861469 -6.167942 1e-06 -4e-06 -2e-06 115.410934 -7.023833 1.441371 110.859116 0.147076 0.35607 -52.434559 9.8362 -7.099122 -7.921701 1.464036 2.668478 -0.999997 0.0 -0.0 -66.645874 0.071763 4.155441 116.050377 0.18924 -0.025858 -66.251656 0.94575 -9.090642 -9.604877 0.621099 1.860303 -1.000002 -0.0 -0.0 
0.0 0.0 0.0 0.0 -0.0 0.0 -0.390159 48.65696 6.975296 90.072578 -59.125053 90.051125 14.064231 -0.340558 0.208146 -4.833787 -0.555979 0.14399 16.263357 -0.655078 -2.074998 13.91002 -0.080965 4.097637 -2.756647 -0.024988 1.896408 -31.099392 3.038193 0.401314 7e-06 0.0 0.0 -0.192146 -0.050106 0.050591 -0.066077 -0.027728 0.068979 -0.03992 -0.071229 0.019726 -34.455841 -70.743477 39.078239 88.989052 1.314036 -25.038607 7.531583 -0.644344 -0.04635 21.913536 76.635323 24.403376 17.636625 -26.322729 52.411182 -19.46666 -14.395596 29.410385 -1e-06 -8.774819 -2e-06 15.403801 -17.761717 6.574196 -0.609776 -1.795654 -3.889327 -4.807088 -11.046811 -2.93785 4e-06 -20.976019 -0.0 -5.019971 -25.03356 -4.031879 6e-06 -1e-06 1e-06 -10.634533 -5.686969 -3.565587 10.573271 -17.922953 -3.113899 2e-06 -13.821208 1e-06 -0.501778 -31.181505 -4.027016 -10.210647 -58.440117 6.36842 -13.982712 -7.150198 -2.875041 13.772729 -8.401493 -3.218241 0.347733 -34.211552 0.771656 -0.963028 -17.73337 2.62102 -0.0 0.0 -0.0 -17.346416 -20.095217 -4.20178 21.757557 -1.638377 3.866428 1e-06 -6.338824 1e-06 -1.697589 -22.591749 -6.194005 -0.0 -6e-06 -2e-06 154.710617 -75.197395 29.944138 96.381058 1.747318 -23.095934 4.314271 -0.545995 -0.01309 27.627958 77.178955 28.813416 22.182112 -20.375887 49.933304 -16.701811 -16.743528 28.47653 -2e-06 -12.6906 -1e-06 16.908535 -17.948065 2.402268 -0.105919 -1.513856 -4.27588 -5.03904 -5.612872 -2.953557 4e-06 -11.020523 -2e-06 -6.111298 -15.895332 -3.840469 -1e-06 -0.0 0.0 -10.283369 -5.680287 -4.341837 11.028295 -11.302406 -2.372633 -1.384268 -14.23858 -6.320119 -0.62544 -26.924191 -3.8276 -4.324929 -50.000507 -4.136269 -13.708523 -7.363475 -3.720938 18.141148 -14.052739 -3.242675 7e-06 -18.787268 -2e-06 -0.429712 -8.456044 2.555503 0.0 -1e-06 0.0 -15.923532 -20.094482 -5.473583 30.419207 -7.190827 1.735926 2e-06 -8.162922 -0.0 -1.861899 -22.861473 -6.167943 -1e-06 -3e-06 -1e-06 115.559631 -7.027851 1.381258 110.73793 0.113935 0.364956 -52.669125 9.680942 -6.968234 -8.080328 1.488433 2.656092 -0.999997 -0.0 0.0 -66.46048 0.072651 4.174855 115.813263 0.200892 -0.019509 -66.135193 0.983207 -9.154492 -9.694804 0.611548 1.867203 -1.000002 -0.0 -0.0 
0.0 0.0 0.0 0.0 -0.0 0.0 -0.315953 48.634739 7.104106 89.906456 -59.222862 90.259964 13.926738 -0.293374 0.255609 -4.911376 -0.532775 0.176114 16.296919 -0.603984 -2.090031 13.933854 -0.087958 3.979581 -2.756055 -0.031175 1.828749 -31.172865 3.023465 0.37312 5e-06 -0.0 -0.0 -0.190443 -0.067849 0.056356 -0.107995 -0.046248 0.061867 -0.071736 -0.088744 0.036269 -34.068424 -70.787842 38.813263 89.106133 1.268001 -25.062162 7.447306 -0.682907 -0.051408 22.645784 76.629112 25.16806 17.636627 -26.322725 52.411167 -19.46666 -14.395594 29.410381 -2e-06 -8.774819 -3e-06 15.419031 -17.742437 6.539979 -0.609776 -1.795654 -3.889326 -4.807087 -11.04681 -2.937849 3e-06 -20.976019 1e-06 -5.019972 -25.033556 -4.031878 6e-06 1e-06 0.0 -10.634532 -5.686971 -3.565586 10.573271 -17.922951 -3.113899 2e-06 -13.821209 1e-06 -0.501778 -31.181505 -4.027016 -10.18605 -58.473038 6.353311 -13.982712 -7.150197 -2.875041 13.772726 -8.401491 -3.218239 0.347732 -34.211544 0.771655 -0.963029 -17.73337 2.621019 -0.0 0.0 0.0 -17.346416 -20.095215 -4.201779 21.757555 -1.638376 3.866428 1e-06 -6.338822 1e-06 -1.69759 -22.591742 -6.194005 -1e-06 -7e-06 -2e-06 155.162842 -75.24247 29.659056 96.041359 1.678492 -23.059881 4.427595 -0.510655 -0.013784 27.655531 77.151405 29.032385 22.18211 -20.375887 49.933308 -16.701809 -16.743525 28.476521 -2e-06 -12.6906 -1e-06 16.907764 -17.874342 2.443974 -0.10592 -1.513856 -4.275879 -5.03904 -5.612871 -2.953556 3e-06 -11.020523 -2e-06 -6.111296 -15.895334 -3.840469 -1e-06 -1e-06 -0.0 -10.283368 -5.680288 -4.341836 11.028289 -11.302402 -2.372631 -1.384268 -14.238576 -6.32012 -0.62544 -26.924191 -3.8276 -4.289186 -50.028481 -4.074894 -13.708522 -7.363476 -3.720938 18.141146 -14.052739 -3.242673 6e-06 -18.78727 -2e-06 -0.429712 -8.456045 2.555503 0.0 -1e-06 -0.0 -15.923532 -20.094482 -5.473581 30.419205 -7.190826 1.735926 2e-06 -8.162921 0.0 -1.861901 -22.861469 -6.167942 -0.0 -2e-06 -1e-06 115.615486 -6.982027 1.387697 110.702408 0.097892 0.372042 -53.128078 9.603108 -6.921565 -8.381567 1.502293 2.64647 -0.999997 0.0 0.0 -66.352989 0.033453 4.204837 115.667358 0.245888 -0.011597 -66.242935 0.996863 -9.316371 -9.834118 0.606664 1.875775 -1.0 -0.0 0.0 
